# xmcd
#
# Track frame offsets: 
#        150
#        13641
#        28402
#        40172
#        51668
#        65018
#        75710
#        87509
#        100048
#        111377
#        128472
#        138649
#
# Disc length: 2031 seconds
#
# Revision: 0
# Processed by: cddbd v1.5.2PL0 Copyright (c) Steve Scherf et al.
# Submitted via: ExactAudioCopyFreeDBPlugin 1.0
#
DISCID=a907ed0c
DTITLE=The Minits - Follow Your Heart:  The Sounds of Memphis Recordin
DTITLE=gs
DYEAR=2010
DGENRE=Soul
TTITLE0=Lover Boy
TTITLE1=Follow Your Heart
TTITLE2=Love Letters (That's All That's Left of You) (alternate versio
TTITLE2=n)
TTITLE3=Still a Part of Me
TTITLE4=If You Don't Like My Apples (Don't Shake My Tree)
TTITLE5=Hook Line and Sinker
TTITLE6=Take a Look at Yourself
TTITLE7=Natural Reaction
TTITLE8=Stepping Stone
TTITLE9=Last Mile of the Way
TTITLE10=Pullin'
TTITLE11=Love Letters (That's All That's Left of You)
EXTD=
EXTT0=
EXTT1=
EXTT2=
EXTT3=
EXTT4=
EXTT5=
EXTT6=
EXTT7=
EXTT8=
EXTT9=
EXTT10=
EXTT11=
PLAYORDER=
